<svg stroke-miterlimit="10" viewBox="0 0 378 353" xmlns="http://www.w3.org/2000/svg" xmlns:vectornator="http://vectornator.io" clip-rule="evenodd" stroke-linecap="round" stroke-linejoin="round"><g fill="#D61E1C" fill-rule="evenodd" id="Слой-1" vectornator:layerName="Слой 1"><path d="M24.625 352.582c-4.848 0-9.047-.72-12.6-2.16-3.551-1.44-6.335-3.624-8.351-6.552-2.016-2.927-3.12-6.624-3.312-11.088a263.956 263.956 0 01-.072-6.408c0-2.304.024-4.487.072-6.551.192-4.272 1.308-7.813 3.348-10.621 2.04-2.808 4.86-4.92 8.46-6.336 3.6-1.416 7.752-2.124 12.455-2.124 3.793 0 7.2.421 10.224 1.26 3.025.84 5.617 2.004 7.777 3.493 2.16 1.488 3.816 3.203 4.968 5.147 1.151 1.944 1.752 3.996 1.8 6.156 0 .432-.157.805-.468 1.116a1.525 1.525 0 01-1.117.469H31.898c-.529 0-.948-.073-1.26-.217a2.814 2.814 0 01-.829-.576c-.192-.24-.468-.588-.828-1.043-.36-.456-.876-.865-1.548-1.224-.671-.361-1.609-.541-2.808-.541-1.776 0-3.12.444-4.032 1.332-.912.888-1.416 2.244-1.512 4.068a173.43 173.43 0 000 12.24c.096 2.16.649 3.721 1.657 4.681 1.008.959 2.4 1.439 4.175 1.439 1.2 0 2.256-.167 3.168-.504.913-.335 1.631-.887 2.16-1.655.529-.769.793-1.753.793-2.953v-.072H27.65c-.528 0-.984-.192-1.368-.576a1.867 1.867 0 01-.576-1.368v-7.992c0-.528.192-.983.576-1.368.384-.384.84-.576 1.367-.576h19.8c.529 0 .983.192 1.369.576.384.385.576.84.576 1.368v9.36c0 4.321-1.056 7.944-3.169 10.873-2.111 2.927-5.028 5.147-8.748 6.659-3.72 1.513-8.003 2.268-12.851 2.268m33.192-.72c-.53 0-.984-.192-1.368-.576a1.863 1.863 0 01-.576-1.368v-46.512c0-.527.19-.983.576-1.368a1.87 1.87 0 011.368-.576h36.936c.527 0 .982.193 1.367.576.385.385.577.841.577 1.368v10.152c0 .529-.192.985-.576 1.368-.386.385-.84.576-1.368.576h-21.6v4.536H93.17c.528 0 .982.192 1.367.576.384.385.576.84.576 1.368v9.36c0 .529-.192.985-.576 1.369a1.87 1.87 0 01-1.368.575H73.154v4.537H95.33c.527 0 .983.191 1.369.575.382.384.576.84.576 1.369v10.151c0 .528-.194.984-.576 1.368a1.873 1.873 0 01-1.368.576H57.817zm68.831-13.32c1.584 0 2.855-.468 3.816-1.404.96-.936 1.463-2.411 1.512-4.427.095-2.064.144-4.104.144-6.121 0-2.016-.049-4.007-.144-5.975-.049-1.344-.3-2.448-.756-3.313-.457-.863-1.069-1.5-1.836-1.907-.768-.408-1.681-.612-2.736-.612-1.008 0-1.908.204-2.7.612-.792.407-1.416 1.044-1.872 1.907-.457.865-.709 1.969-.756 3.313a245.023 245.023 0 00-.072 5.975c0 2.017.024 4.057.072 6.121.096 2.016.612 3.491 1.548 4.427.936.936 2.196 1.404 3.78 1.404m0 14.04c-4.705 0-8.82-.72-12.348-2.16-3.528-1.44-6.313-3.611-8.352-6.516-2.041-2.903-3.157-6.491-3.348-10.764a275.992 275.992 0 010-12.672c.191-4.223 1.296-7.799 3.312-10.728 2.016-2.927 4.799-5.159 8.352-6.695 3.551-1.536 7.679-2.305 12.384-2.305 4.703 0 8.831.769 12.384 2.305 3.552 1.536 6.347 3.768 8.388 6.695 2.039 2.929 3.132 6.505 3.276 10.728a139.495 139.495 0 010 12.672c-.192 4.273-1.308 7.861-3.348 10.764-2.041 2.905-4.824 5.076-8.352 6.516-3.528 1.44-7.645 2.16-12.348 2.16m48.671-30.096h5.256c1.104 0 1.932-.371 2.484-1.116.551-.744.828-1.595.828-2.556 0-.96-.252-1.859-.756-2.699-.504-.84-1.357-1.261-2.556-1.261h-5.256v7.632zm-16.056 29.376c-.529 0-.984-.191-1.368-.575a1.867 1.867 0 01-.576-1.369v-46.512c0-.527.191-.983.576-1.368a1.871 1.871 0 011.368-.576h21.312c6.912 0 12.312 1.56 16.2 4.68 3.888 3.121 5.832 7.393 5.832 12.816 0 3.217-.732 6.012-2.196 8.389-1.465 2.376-3.324 4.283-5.58 5.723l8.856 16.416c.144.289.216.553.216.793 0 .432-.156.803-.468 1.116a1.524 1.524 0 01-1.116.467h-14.76c-.961 0-1.681-.239-2.16-.72-.48-.479-.792-.887-.936-1.224l-6.192-13.751h-2.952v13.751c0 .529-.193.984-.576 1.369a1.87 1.87 0 01-1.368.575h-14.112zm73.009.72c-4.851 0-9.05-.72-12.602-2.16-3.552-1.44-6.336-3.624-8.352-6.552-2.016-2.927-3.121-6.624-3.312-11.088a263.956 263.956 0 01-.072-6.408c0-2.304.024-4.487.072-6.551.191-4.272 1.307-7.813 3.348-10.621 2.04-2.808 4.86-4.92 8.46-6.336 3.6-1.416 7.752-2.124 12.458-2.124 3.789 0 7.197.421 10.224 1.26 3.024.84 5.614 2.004 7.776 3.493 2.158 1.488 3.814 3.203 4.966 5.147 1.154 1.944 1.752 3.996 1.802 6.156 0 .432-.159.805-.468 1.116a1.532 1.532 0 01-1.118.469h-15.912c-.528 0-.948-.073-1.26-.217a2.805 2.805 0 01-.828-.576c-.193-.24-.466-.588-.828-1.043-.36-.456-.876-.865-1.548-1.224-.67-.361-1.609-.541-2.806-.541-1.778 0-3.123.444-4.034 1.332-.912.888-1.416 2.244-1.512 4.068a173.43 173.43 0 000 12.24c.096 2.16.648 3.721 1.656 4.681 1.008.959 2.4 1.439 4.176 1.439 1.2 0 2.255-.167 3.17-.504.91-.335 1.629-.887 2.158-1.655.528-.769.792-1.753.792-2.953v-.072h-3.382c-.53 0-.986-.192-1.368-.576a1.862 1.862 0 01-.578-1.368v-7.992c0-.528.192-.983.578-1.368a1.862 1.862 0 011.368-.576h19.798c.53 0 .984.192 1.368.576.386.385.578.84.578 1.368v9.36c0 4.321-1.058 7.944-3.17 10.873-2.112 2.927-5.028 5.147-8.746 6.659-3.722 1.513-8.006 2.268-12.852 2.268m33.19-.72c-.528 0-.984-.192-1.367-.576a1.866 1.866 0 01-.577-1.368v-46.512c0-.527.192-.983.577-1.368a1.869 1.869 0 011.367-.576h36.936c.528 0 .982.193 1.369.576.383.385.575.841.575 1.368v10.152c0 .529-.192.985-.575 1.368a1.872 1.872 0 01-1.369.576h-21.6v4.536h20.017c.527 0 .983.192 1.367.576.384.385.577.84.577 1.368v9.36c0 .529-.193.985-.577 1.369-.384.384-.84.575-1.367.575h-20.017v4.537h22.176c.528 0 .984.191 1.368.575.384.384.576.84.576 1.369v10.151c0 .528-.192.984-.576 1.368-.384.384-.84.576-1.368.576h-37.512zm45.72-29.303a1.72 1.72 0 01-1.152-.432c-.336-.288-.482-.72-.432-1.296l2.664-17.28c.096-.672.394-1.307.898-1.91.506-.598 1.236-.898 2.198-.898h11.518c.434 0 .804.156 1.116.468.314.313.47.684.47 1.116 0 .192-.026.36-.072.504l-6.842 17.422c-.19.482-.514.986-.97 1.514-.458.529-1.164.792-2.124.792h-7.272zm42.623 30.023c-5.328 0-9.72-.72-13.176-2.16-3.457-1.44-6.048-3.335-7.776-5.688-1.729-2.351-2.64-4.847-2.737-7.488 0-.432.157-.803.469-1.116a1.525 1.525 0 011.116-.467h13.68c.767 0 1.355.108 1.764.323.408.216.852.516 1.332.901.479.335.971.636 1.475.899a6.046 6.046 0 001.728.576c.649.121 1.357.18 2.125.18 1.632 0 2.939-.18 3.923-.54.984-.36 1.477-.851 1.477-1.476 0-.576-.277-1.055-.828-1.44-.552-.383-1.501-.731-2.844-1.044-1.345-.312-3.216-.612-5.616-.9-3.793-.528-7.081-1.416-9.864-2.664-2.784-1.248-4.933-2.963-6.444-5.147-1.512-2.184-2.269-4.861-2.269-8.029 0-3.263.925-6.143 2.772-8.639 1.848-2.497 4.416-4.441 7.705-5.832 3.288-1.392 7.116-2.089 11.484-2.089 3.599 0 6.792.469 9.576 1.404 2.784.936 5.135 2.16 7.056 3.672 1.919 1.513 3.384 3.132 4.392 4.86 1.008 1.728 1.535 3.384 1.584 4.968 0 .432-.157.804-.468 1.116-.313.313-.661.468-1.045.468h-14.399c-.673 0-1.213-.096-1.62-.287-.409-.192-.828-.48-1.261-.865-.24-.24-.683-.516-1.332-.828-.647-.311-1.475-.468-2.483-.468-1.2 0-2.077.18-2.629.541-.552.359-.828.851-.828 1.475 0 .432.216.841.649 1.224.432.385 1.224.72 2.376 1.008 1.152.288 2.807.577 4.967.864 4.8.576 8.652 1.5 11.556 2.772 2.904 1.273 5.016 2.964 6.336 5.076 1.321 2.113 1.981 4.728 1.981 7.848 0 3.505-1.044 6.528-3.132 9.073-2.088 2.544-4.932 4.5-8.532 5.867-3.601 1.368-7.68 2.052-12.24 2.052M139.975 176.214c0 6.852 5.573 12.427 12.425 12.427 1.682 0 3.316-.332 4.858-.986a2 2 0 10-1.563-3.682 8.408 8.408 0 01-3.295.668c-4.646 0-8.425-3.78-8.425-8.427 0-4.645 3.779-8.425 8.425-8.425a8.458 8.458 0 017.295 4.205 2 2 0 103.46-2.007 12.47 12.47 0 00-10.755-6.198c-6.852 0-12.425 5.573-12.425 12.425"/><path d="M217.899 28.335c1.593-.952 3.861-1.756 6.361-.908.498.19 2.328 1.497 3.824 2.718l59.978 55.57c.538.47 2.22 2.126 2.852 3.508.486 1.066.181 2.888.042 3.416l-3.672 13.06-3.536-2.474s-27.45-56.935-65.849-74.89m45.876 186.854a10.541 10.541 0 01-9.417-5.759 2.001 2.001 0 00-3.56 1.825 14.543 14.543 0 006.937 6.619c-2.419 5.951-20.76 46.073-76.928 51.737-13.948 1.408-35.219.719-57.343-10.553-37.825-19.268-44.454-50.867-38.638-72.071 5.386-19.642 20.134-32.057 20.284-32.181l.564-.468.128-.719c.013-.076 1.361-7.577 1.832-9.586.413-1.766 1.482-5.314 2.181-7.587 2.16-5.716 4.937-12.325 7.861-17.335 8.88-15.206 15.604-19.972 15.604-19.972s7.766 3.307 19.178 2.496c17.588-1.248 39.716-1.474 49.474 1.93 2.548.888 5.924 2.53 8.114 4.51 2.454 2.219 3.064 4.596 5.276 3.66 3.938-1.666-4.766-18.95-4.766-18.95s22.398 8.876 28.256 25.078c9.191 25.418-4.085 36.879-5.108 53.559-.533 8.721 1.322 16.192 2.724 21.929 1.696 6.932-1.276 12.596 2.98 13.192 4.272.599 3.168-5.806 7.406-10.125 5.765-5.875 12.797-11.545 18.325-11.037 3.087.284 3.595 3.75 3.648 5.565a14.474 14.474 0 00-11.068.407 2 2 0 001.664 3.638 10.478 10.478 0 014.392-.952c5.831 0 10.576 4.743 10.576 10.574 0 5.832-4.745 10.576-10.576 10.576m-65.889-198.81C207.298 8.985 215.6 6.211 220.91 5.187c1.681-.324 2.816-.53 3.649-.645l-10.963 21.97a58.413 58.413 0 00-3.04-1.076c-13.744-4.393-24.502 4.41-30.208 10.867 4.204-6.196 10.495-14.39 17.538-19.924m96.25 52.839c.787 2.046-.792 8.618-2.608 14.275a18.036 18.036 0 00-.792-.751L230.71 27.13c-1.09-.892-3.774-3.017-5.156-3.487a10.639 10.639 0 00-5.908-.294l9.096-18.231c6.438 3.013 26.098 17.401 34.558 26.02 16.03 16.326 26.62 27.112 30.836 38.08m-3.409 39.016l4.087-14.532c.096-.358.91-3.575-.263-6.143-.029-.065-.071-.13-.103-.196 1.591-4.519 5.056-15.33 3.423-19.58-4.516-11.744-15.336-22.765-31.76-39.492-8.776-8.94-32.163-26.384-37.945-27.618-2.155-.462-3.354-.312-8.015.586-5.741 1.108-14.696 4.086-24.736 11.973-12.003 9.431-21.544 25.52-23.583 29.1-7.44.287-23.846 1.9-37.02 10.169-23.32 14.638-15.042 36.733-15.042 36.733s-15.027-2.667-24.278 22.841c-4.242 11.702 3.652 26.698 7.77 33.338a526.178 526.178 0 00-1.271 6.801c-2.913 2.573-15.841 14.824-21.023 33.716-6.214 22.653.71 56.333 40.68 76.693 17.723 9.028 34.908 11.523 48.488 11.523 4.036 0 7.754-.222 11.072-.556 59.274-5.976 78.199-49.075 80.379-54.575.717.108 1.447.174 2.188.174 8.037 0 14.576-6.539 14.576-14.576 0-1.515-.233-2.976-.664-4.351 3.28-2.044 16.42-11.553 19.768-34.473 5.541-37.942-5.243-55.37-6.728-57.555"/><path d="M126.855 238.797c-6.124-3.064-11.673-8.32-16.08-14.308 2.352-2.6 7.876-7.495 16.467-7.904a26.98 26.98 0 0117.903 5.626c-3.576.819-5.82 1.923-6.046 2.038a1.997 1.997 0 00-.881 2.682 2.005 2.005 0 002.684.888c.124-.061 12.437-6.06 26.105.93 6.584 3.368 11.126 13.55 11.979 15.585-.168.101-.319.217-.493.317-12.8 7.223-38.38.778-51.638-5.854m43.628-24.839c-6.977-1.475-15.66-3.312-25.26-8.019-7.965-3.905-13.088-8.868-17.608-13.246-6.658-6.451-12.409-12.024-23.088-7.652h-.001c-4.959 2.029-7.705 6.461-7.945 12.817-.518 13.74 11.813 36.18 28.485 44.517 7.908 3.955 24.133 9.464 38.515 9.464 6.252 0 12.158-1.041 16.877-3.704 5.739-3.24 8.936-8.473 9.501-15.557 1.136-14.259-7.509-16.088-19.476-18.62m39.563-73.457c-7.861-3.256-15.465 10.054-19.067 17.661a86.4 86.4 0 00-1.014 2.219c-.743 1.684 3.145 3.609 2.38 5.566-.624 1.592-4.688.934-5.039 2.327a64.323 64.323 0 00-.545 2.343c-1.42 6.666-2.122 15.497 3.838 16.309 10 1.361 6.051-11.447 12.639-23.659 3.477-6.449 15.744-19.064 6.808-22.766m-85.532 26.298c8.639.112 4.762-9.468 11.064-21.831 3.319-6.509 13.531-16.849 6.596-20.169-7.021-3.362-14.193 7.661-17.796 15.268a89.709 89.709 0 00-1.014 2.218c-.743 1.684 3.145 3.61 2.378 5.567-.622 1.592-4.686.933-5.037 2.325a64.882 64.882 0 00-.545 2.344c-1.42 6.667-1.66 14.199 4.354 14.278"/></g></svg>