<svg stroke-miterlimit="10" viewBox="0 0 283 39" xmlns="http://www.w3.org/2000/svg" xmlns:vectornator="http://vectornator.io" clip-rule="evenodd" stroke-linecap="round" stroke-linejoin="round"><clipPath id="ArtboardFrame"><path d="M0 0h283v39H0z"/></clipPath><g fill="#d41b1c" fill-rule="evenodd" clip-path="url(#ArtboardFrame)" id="Слой-1" vectornator:layerName="Слой 1"><path d="M18.22 38.938c-3.637 0-6.787-.54-9.45-1.62-2.665-1.08-4.753-2.718-6.265-4.914C.993 30.209.165 27.436.021 24.088a197.981 197.981 0 01-.054-4.807c0-1.727.018-3.365.054-4.913.144-3.204.981-5.859 2.511-7.966 1.53-2.105 3.645-3.689 6.345-4.752C11.577.589 14.691.058 18.22.058c2.844 0 5.4.315 7.668.945 2.268.63 4.212 1.503 5.832 2.619 1.62 1.116 2.862 2.402 3.726 3.86.864 1.458 1.314 2.998 1.35 4.618 0 .324-.117.603-.35.837a1.143 1.143 0 01-.838.351H23.673c-.396 0-.71-.055-.945-.162a2.109 2.109 0 01-.62-.433c-.145-.179-.352-.44-.622-.782s-.657-.648-1.16-.918c-.505-.27-1.208-.405-2.107-.405-1.332 0-2.34.333-3.024.999-.684.666-1.062 1.683-1.134 3.051a130.073 130.073 0 000 9.18c.072 1.62.486 2.791 1.242 3.511.756.719 1.8 1.079 3.132 1.079.9 0 1.692-.125 2.376-.378a3.29 3.29 0 001.62-1.241c.396-.577.594-1.315.594-2.215v-.054h-2.538c-.396 0-.738-.144-1.026-.432a1.4 1.4 0 01-.432-1.026v-5.995c0-.395.144-.737.432-1.025.288-.288.63-.433 1.026-.433h14.85c.396 0 .737.145 1.026.433.288.288.432.63.432 1.025v7.021c0 3.241-.792 5.958-2.376 8.155-1.584 2.195-3.77 3.86-6.56 4.994-2.79 1.135-6.004 1.701-9.64 1.701m24.894-.54a1.4 1.4 0 01-1.026-.432 1.398 1.398 0 01-.432-1.026V2.056c0-.396.143-.738.432-1.027a1.403 1.403 0 011.026-.431h27.702c.396 0 .737.144 1.026.43.288.29.432.632.432 1.028V9.67c0 .396-.144.738-.432 1.025a1.4 1.4 0 01-1.026.433h-16.2v3.4h15.012c.396 0 .737.146 1.026.434.288.288.432.63.432 1.025v7.02c0 .398-.144.74-.432 1.028-.289.288-.63.43-1.026.43H54.615v3.404h16.632c.395 0 .737.143 1.026.43.287.289.432.63.432 1.028v7.613c0 .396-.145.738-.432 1.026a1.405 1.405 0 01-1.026.432H43.113zM94.743.047c-3.53 0-6.619.598-9.282 1.75-2.665 1.153-4.769 2.805-6.28 5-1.513 2.196-2.327 4.895-2.47 8.062a207.032 207.032 0 00-.062 4.813c0 1.657.026 3.212.062 4.687.143 3.205.97 5.886 2.5 8.063 1.53 2.179 3.604 3.826 6.25 4.906 2.646 1.08 5.753 1.625 9.282 1.625 3.526 0 6.604-.545 9.25-1.625s4.75-2.727 6.281-4.906c1.53-2.177 2.356-4.858 2.5-8.063.071-1.475.094-3.03.094-4.687 0-1.656-.023-3.264-.094-4.813-.108-3.167-.94-5.866-2.469-8.062-1.531-2.195-3.617-3.847-6.281-5C101.359.645 98.27.047 94.743.047zm0 10.531c.79 0 1.455.163 2.03.469a3.4 3.4 0 011.407 1.437c.342.648.526 1.461.563 2.47.07 1.476.093 2.987.093 4.5 0 1.512-.022 3.045-.093 4.593-.037 1.512-.437 2.61-1.157 3.312s-1.655 1.063-2.843 1.063-2.142-.36-2.844-1.063c-.702-.702-1.084-1.8-1.156-3.312a198.08 198.08 0 01-.063-4.594c0-1.512.027-3.023.063-4.5.035-1.008.22-1.82.562-2.469.342-.648.812-1.131 1.406-1.437a4.388 4.388 0 012.032-.469zM119.211.61c-.397 0-.743.119-1.031.406a1.418 1.418 0 00-.437 1.03v34.907c0 .396.148.712.437 1 .288.288.634.438 1.031.438h10.563c.396 0 .742-.15 1.031-.438.287-.288.438-.604.438-1V26.641h2.218l4.625 10.312c.108.253.359.546.719.906.359.36.904.532 1.625.532h11.063c.323 0 .608-.11.843-.344.234-.234.344-.52.344-.844 0-.179-.048-.377-.156-.594l-6.656-12.312c1.691-1.08 3.088-2.5 4.187-4.281 1.098-1.783 1.656-3.869 1.656-6.282 0-4.067-1.459-7.284-4.375-9.625-2.916-2.34-6.972-3.5-12.156-3.5h-15.969zm12.032 10.03h3.937c.899 0 1.528.308 1.906.938.378.63.594 1.311.594 2.031a3.11 3.11 0 01-.625 1.907c-.414.559-1.047.843-1.875.843h-3.937v-5.718zm42.711 28.298c-3.638 0-6.787-.54-9.451-1.62-2.664-1.08-4.752-2.718-6.264-4.914-1.512-2.195-2.341-4.968-2.484-8.316a197.978 197.978 0 01-.054-4.807c0-1.727.018-3.365.054-4.913.143-3.204.98-5.859 2.511-7.966 1.53-2.105 3.645-3.689 6.345-4.752 2.7-1.061 5.814-1.592 9.343-1.592 2.842 0 5.398.315 7.668.945 2.268.63 4.211 1.503 5.832 2.619 1.619 1.116 2.861 2.402 3.725 3.86.865 1.458 1.314 2.998 1.351 4.618 0 .324-.119.603-.351.837a1.147 1.147 0 01-.838.351h-11.934c-.396 0-.711-.055-.945-.162a2.096 2.096 0 01-.621-.433c-.145-.179-.35-.44-.621-.782-.27-.342-.657-.648-1.161-.918-.503-.27-1.207-.405-2.105-.405-1.333 0-2.342.333-3.025.999-.684.666-1.062 1.683-1.134 3.051a130.073 130.073 0 000 9.18c.072 1.62.486 2.791 1.242 3.511.756.719 1.8 1.079 3.132 1.079.9 0 1.691-.125 2.377-.378a3.292 3.292 0 001.619-1.241c.396-.577.594-1.315.594-2.215v-.054h-2.537c-.397 0-.739-.144-1.026-.432a1.397 1.397 0 01-.433-1.026v-5.995c0-.395.144-.737.433-1.025a1.4 1.4 0 011.026-.433h14.849c.397 0 .738.145 1.026.433.289.288.433.63.433 1.025v7.021c0 3.241-.793 5.958-2.377 8.155-1.584 2.195-3.771 3.86-6.56 4.994-2.791 1.135-6.004 1.701-9.639 1.701m24.893-.54c-.396 0-.738-.144-1.025-.432a1.399 1.399 0 01-.433-1.026V2.056c0-.396.144-.738.433-1.027a1.4 1.4 0 011.025-.431h27.702c.396 0 .737.144 1.027.43.287.29.431.632.431 1.028V9.67a1.4 1.4 0 01-.431 1.025c-.29.289-.631.433-1.027.433h-16.2v3.4h15.013c.395 0 .737.146 1.025.434.288.288.433.63.433 1.025v7.02c0 .398-.145.74-.433 1.028a1.4 1.4 0 01-1.025.43h-15.013v3.404h16.632a1.4 1.4 0 011.026.43c.288.289.432.63.432 1.028v7.613c0 .396-.144.738-.432 1.026-.288.288-.63.432-1.026.432h-28.134zm34.29-21.978a1.29 1.29 0 01-.864-.324c-.252-.216-.361-.54-.324-.972l1.998-12.96c.072-.504.296-.98.674-1.432.379-.45.927-.674 1.648-.674h8.639c.325 0 .603.117.837.35.235.236.352.514.352.838 0 .144-.019.27-.054.378l-5.131 13.067c-.143.36-.386.739-.728 1.135-.343.397-.873.594-1.593.594h-5.454zm31.968 22.518c-3.996 0-7.29-.54-9.882-1.62-2.593-1.08-4.536-2.501-5.832-4.266-1.297-1.763-1.98-3.635-2.053-5.616 0-.324.118-.602.352-.837.233-.233.513-.35.837-.35h10.26c.575 0 1.016.081 1.323.242.306.162.639.387.999.676.359.251.728.477 1.106.674.378.199.811.343 1.296.432a8.694 8.694 0 001.594.135c1.224 0 2.204-.135 2.942-.405s1.108-.638 1.108-1.107c0-.432-.208-.791-.621-1.08-.414-.287-1.126-.548-2.133-.783-1.009-.234-2.412-.459-4.212-.675-2.845-.396-5.311-1.062-7.398-1.998-2.088-.936-3.7-2.222-4.833-3.861-1.134-1.638-1.702-3.645-1.702-6.021 0-2.448.694-4.608 2.079-6.48 1.386-1.872 3.312-3.33 5.779-4.374C258.58.58 261.451.058 264.727.058c2.699 0 5.094.351 7.182 1.052 2.088.703 3.851 1.62 5.292 2.754 1.439 1.135 2.538 2.35 3.294 3.646.756 1.296 1.151 2.538 1.188 3.725 0 .325-.118.604-.351.837-.235.236-.496.352-.784.352h-10.799c-.505 0-.91-.072-1.215-.216a4.009 4.009 0 01-.946-.648c-.18-.18-.512-.387-.999-.622-.485-.233-1.106-.35-1.862-.35-.9 0-1.558.135-1.972.405-.414.27-.621.639-.621 1.107 0 .324.162.63.487.918.324.289.918.54 1.782.755.864.216 2.105.433 3.725.649 3.6.432 6.489 1.125 8.667 2.079 2.178.954 3.762 2.223 4.752 3.807.991 1.585 1.486 3.546 1.486 5.886 0 2.629-.783 4.896-2.349 6.805-1.566 1.908-3.699 3.375-6.399 4.4-2.701 1.026-5.76 1.539-9.18 1.539"/></g></svg>