<svg stroke-miterlimit="10" viewBox="0 0 221 274" xmlns="http://www.w3.org/2000/svg" xmlns:vectornator="http://vectornator.io" clip-rule="evenodd" stroke-linecap="round" stroke-linejoin="round"><g fill="#D61E1C" fill-rule="evenodd" id="Слой-1" vectornator:layerName="Слой 1"><path d="M61.475 175.932c0 6.852 5.574 12.427 12.425 12.427a12.37 12.37 0 004.858-.986 2 2 0 10-1.563-3.682 8.409 8.409 0 01-3.294.668c-4.647 0-8.426-3.78-8.426-8.427 0-4.645 3.779-8.425 8.425-8.425a8.458 8.458 0 017.295 4.205 2 2 0 103.46-2.007 12.47 12.47 0 00-10.755-6.198c-6.852 0-12.425 5.573-12.425 12.425"/><path d="M139.399 28.053c1.593-.952 3.861-1.756 6.361-.908.498.19 2.328 1.497 3.824 2.718l59.978 55.57c.538.47 2.22 2.125 2.852 3.508.486 1.066.181 2.888.042 3.416l-3.672 13.06-3.536-2.474s-27.45-56.935-65.849-74.89m45.876 186.854a10.541 10.541 0 01-9.417-5.759 2.001 2.001 0 00-3.56 1.825 14.543 14.543 0 006.937 6.619c-2.419 5.951-20.76 46.073-76.928 51.737-13.948 1.408-35.219.719-57.343-10.553C7.14 239.508.51 207.909 6.326 186.705c5.386-19.642 20.134-32.057 20.284-32.181l.564-.468.128-.719c.013-.076 1.36-7.577 1.832-9.586.413-1.766 1.482-5.314 2.18-7.587 2.16-5.716 4.938-12.325 7.862-17.335 8.88-15.206 15.604-19.972 15.604-19.972s7.765 3.307 19.177 2.496c17.589-1.248 39.717-1.474 49.475 1.93 2.548.888 5.924 2.53 8.114 4.51 2.454 2.219 3.064 4.596 5.276 3.66 3.938-1.666-4.766-18.95-4.766-18.95s22.398 8.876 28.256 25.078c9.191 25.418-4.085 36.879-5.108 53.559-.533 8.721 1.322 16.192 2.724 21.929 1.696 6.932-1.276 12.596 2.98 13.192 4.272.599 3.168-5.806 7.406-10.125 5.765-5.875 12.797-11.545 18.325-11.037 3.087.284 3.595 3.75 3.648 5.565a14.474 14.474 0 00-11.068.407 2 2 0 001.664 3.638 10.478 10.478 0 014.392-.952c5.831 0 10.576 4.743 10.576 10.574 0 5.832-4.745 10.576-10.576 10.576m-65.889-198.81C128.798 8.703 137.1 5.93 142.41 4.905c1.681-.324 2.816-.53 3.649-.645l-10.963 21.97a58.413 58.413 0 00-3.04-1.076c-13.744-4.393-24.502 4.41-30.208 10.867 4.204-6.196 10.495-14.39 17.538-19.924m96.25 52.839c.787 2.046-.792 8.618-2.608 14.274a18.072 18.072 0 00-.792-.75L152.21 26.848c-1.09-.892-3.774-3.017-5.156-3.487a10.639 10.639 0 00-5.908-.294l9.096-18.231c6.438 3.013 26.098 17.401 34.558 26.02 16.03 16.326 26.62 27.112 30.836 38.08m-3.409 39.016l4.087-14.532c.096-.358.91-3.575-.263-6.143-.029-.065-.071-.13-.103-.196 1.591-4.519 5.056-15.33 3.423-19.58-4.516-11.744-15.336-22.765-31.76-39.492-8.776-8.94-32.163-26.384-37.945-27.618-2.155-.462-3.354-.312-8.015.586-5.741 1.108-14.696 4.086-24.736 11.973-12.003 9.431-21.544 25.52-23.583 29.1-7.44.287-23.846 1.9-37.02 10.169C32.992 66.856 41.27 88.951 41.27 88.951s-15.027-2.667-24.278 22.841c-4.243 11.702 3.652 26.698 7.77 33.338a537.52 537.52 0 00-1.271 6.801c-2.913 2.573-15.841 14.824-21.023 33.716-6.214 22.653.71 56.333 40.68 76.693 17.723 9.028 34.908 11.523 48.488 11.523 4.036 0 7.754-.221 11.072-.556 59.274-5.976 78.199-49.075 80.379-54.575.717.108 1.447.174 2.188.174 8.037 0 14.576-6.539 14.576-14.576 0-1.515-.233-2.976-.664-4.351 3.28-2.044 16.42-11.553 19.768-34.473 5.541-37.942-5.243-55.37-6.728-57.555"/><path d="M48.355 238.515c-6.124-3.064-11.673-8.32-16.08-14.308 2.352-2.6 7.876-7.495 16.467-7.904a26.978 26.978 0 0117.903 5.626c-3.576.819-5.82 1.923-6.046 2.038a1.998 1.998 0 00-.881 2.682 2.005 2.005 0 002.684.888c.124-.061 12.437-6.06 26.105.93 6.584 3.368 11.126 13.55 11.979 15.585-.168.101-.319.217-.493.317-12.8 7.223-38.38.778-51.638-5.854m43.628-24.839c-6.977-1.475-15.66-3.312-25.26-8.019-7.965-3.905-13.088-8.868-17.608-13.246-6.658-6.451-12.41-12.024-23.088-7.652h-.001c-4.959 2.029-7.705 6.461-7.945 12.817-.518 13.74 11.813 36.18 28.485 44.517 7.908 3.955 24.133 9.464 38.515 9.464 6.252 0 12.158-1.041 16.877-3.704 5.739-3.24 8.936-8.473 9.501-15.557 1.136-14.259-7.509-16.088-19.476-18.62m39.563-73.457c-7.861-3.256-15.465 10.054-19.067 17.661a86.4 86.4 0 00-1.014 2.219c-.743 1.684 3.145 3.609 2.38 5.566-.624 1.592-4.688.934-5.039 2.327a64.323 64.323 0 00-.545 2.343c-1.42 6.666-2.122 15.497 3.838 16.309 10 1.361 6.051-11.447 12.639-23.659 3.477-6.449 15.744-19.064 6.808-22.766m-85.532 26.298c8.639.112 4.761-9.468 11.064-21.831 3.319-6.509 13.53-16.849 6.596-20.169-7.021-3.362-14.193 7.661-17.796 15.268a90.298 90.298 0 00-1.014 2.218c-.743 1.684 3.145 3.61 2.378 5.567-.622 1.592-4.686.933-5.037 2.325-.185.736-.37 1.524-.545 2.344-1.42 6.667-1.66 14.199 4.354 14.278"/></g></svg>