<?xml version="1.0" encoding="utf-8"?>
<!-- Generator: Adobe Illustrator 25.2.3, SVG Export Plug-In . SVG Version: 6.00 Build 0)  -->
<svg version="1.1" id="Слой_3" xmlns="http://www.w3.org/2000/svg" xmlns:xlink="http://www.w3.org/1999/xlink" x="0px" y="0px"
	 viewBox="0 0 374.17 374.17" style="enable-background:new 0 0 374.17 374.17;" xml:space="preserve">
<style type="text/css">
	.st0{fill:#D41D1C;}
</style>
<g>
	<g>
		<path class="st0" d="M142.38,224.02c0,6.49,5.28,11.77,11.77,11.77c1.59,0,3.14-0.32,4.6-0.93c0.96-0.4,1.41-1.51,1-2.49
			c-0.42-0.97-1.53-1.41-2.49-1c-0.98,0.42-2.03,0.63-3.12,0.63c-4.39,0-7.98-3.57-7.98-7.98s3.57-7.98,7.98-7.98
			c2.84,0,5.48,1.53,6.91,3.98c0.52,0.91,1.68,1.21,2.59,0.68c0.91-0.53,1.21-1.68,0.68-2.59c-2.1-3.62-6-5.87-10.19-5.87
			C147.66,212.25,142.38,217.53,142.38,224.02z"/>
		<path class="st0" d="M285.11,159.65l3.86-13.76c0.09-0.34,0.86-3.38-0.25-5.82c-0.03-0.06-0.06-0.13-0.1-0.19
			c1.5-4.28,4.78-14.52,3.24-18.54c-4.28-11.12-14.52-21.55-30.07-37.39c-8.31-8.47-30.45-24.98-35.93-26.14
			c-2.05-0.44-3.18-0.29-7.59,0.56c-5.44,1.05-13.91,3.86-23.42,11.34c-11.36,8.93-20.4,24.16-22.33,27.55
			c-7.04,0.28-22.57,1.79-35.06,9.63c-22.07,13.87-14.23,34.79-14.23,34.79s-14.23-2.52-22.99,21.62
			c-4.01,11.08,3.46,25.27,7.36,31.56c-0.43,2.2-0.97,5.14-1.2,6.44c-2.75,2.44-15,14.04-19.91,31.93
			c-5.88,21.45,0.67,53.34,38.52,72.61c16.78,8.55,33.05,10.91,45.91,10.91c3.83,0,7.35-0.21,10.48-0.53
			c56.11-5.66,74.04-46.47,76.1-51.67c0.68,0.1,1.38,0.16,2.07,0.16c7.61,0,13.8-6.19,13.8-13.8c0-1.44-0.23-2.82-0.63-4.12
			c3.11-1.93,15.55-10.93,18.72-32.63C296.72,178.22,286.51,161.72,285.11,159.65z M288.34,122.71c0.74,1.93-0.74,8.16-2.47,13.52
			c-0.38-0.38-0.68-0.64-0.74-0.71l-56.83-52.65c-1.04-0.85-3.57-2.85-4.89-3.31c-2.05-0.69-3.93-0.66-5.59-0.28l8.61-17.26
			c6.1,2.85,24.71,16.47,32.72,24.63C274.31,102.12,284.35,112.32,288.34,122.71z M197.21,72.68c8.91-7.01,16.78-9.63,21.8-10.59
			c1.59-0.3,2.66-0.5,3.46-0.61l-10.39,20.79c-0.96-0.37-1.91-0.71-2.88-1.02c-13.02-4.17-23.2,4.18-28.61,10.29
			C184.58,85.68,190.54,77.92,197.21,72.68z M259.59,260.92c-3.77,0-7.2-2.1-8.91-5.45c-0.48-0.93-1.62-1.3-2.55-0.82
			c-0.93,0.48-1.3,1.62-0.82,2.55c1.45,2.84,3.79,5,6.56,6.26c-2.28,5.63-19.66,43.63-72.84,48.98c-13.2,1.34-33.34,0.68-54.3-9.99
			c-35.81-18.24-42.09-48.16-36.57-68.23c5.1-18.6,19.06-30.35,19.2-30.47l0.53-0.44l0.13-0.68c0.01-0.08,1.29-7.17,1.73-9.08
			c0.39-1.67,1.4-5.04,2.07-7.18c2.05-5.42,4.67-11.66,7.45-16.41c8.41-14.39,14.77-18.91,14.77-18.91s7.35,3.13,18.15,2.36
			c16.65-1.19,37.61-1.4,46.85,1.83c2.41,0.85,5.61,2.4,7.69,4.27c2.32,2.1,2.9,4.36,5,3.46c3.72-1.58-4.51-17.94-4.51-17.94
			s21.21,8.41,26.75,23.75c8.7,24.06-3.86,34.92-4.84,50.71c-0.5,8.26,1.25,15.33,2.58,20.77c1.6,6.56-1.21,11.93,2.82,12.49
			c4.04,0.57,3-5.49,7.01-9.58c5.45-5.57,12.12-10.93,17.35-10.45c2.93,0.27,3.41,3.55,3.46,5.26c-1.48-0.54-3.08-0.86-4.75-0.86
			c-1.99,0-3.93,0.42-5.73,1.25c-0.95,0.43-1.36,1.57-0.93,2.51c0.43,0.95,1.57,1.38,2.51,0.93c1.31-0.59,2.7-0.9,4.15-0.9
			c5.52,0,10.01,4.49,10.01,10.01C269.61,256.42,265.11,260.92,259.59,260.92z M216.16,84c1.51-0.9,3.66-1.67,6.02-0.86
			c0.47,0.18,2.21,1.41,3.62,2.58l56.78,52.62c0.5,0.44,2.11,2.01,2.7,3.32c0.47,1.01,0.18,2.74,0.04,3.23l-3.47,12.36l-3.35-2.35
			C278.51,154.91,252.51,100.99,216.16,84z"/>
		<path class="st0" d="M171.26,259.75c-6.6-1.4-14.83-3.13-23.91-7.59c-7.54-3.7-12.4-8.39-16.68-12.55
			c-6.3-6.11-11.75-11.39-21.86-7.25l0,0c-4.7,1.92-7.3,6.12-7.52,12.13c-0.49,13,11.18,34.25,26.96,42.15
			c7.49,3.75,22.85,8.96,36.47,8.96c5.92,0,11.51-0.98,15.98-3.51c5.43-3.07,8.46-8.02,9-14.73
			C190.78,263.88,182.59,262.14,171.26,259.75z M129.96,283.26c-5.79-2.9-11.06-7.88-15.22-13.55c2.22-2.46,7.46-7.09,15.59-7.49
			c8.27-0.39,14.14,3.13,16.95,5.33c-3.38,0.77-5.52,1.82-5.72,1.93c-0.93,0.47-1.3,1.6-0.83,2.54c0.47,0.93,1.6,1.3,2.54,0.85
			c0.11-0.06,11.78-5.73,24.72,0.88c6.24,3.19,10.53,12.83,11.34,14.76c-0.16,0.1-0.3,0.2-0.47,0.3
			C166.72,295.64,142.51,289.55,129.96,283.26z"/>
		<path class="st0" d="M208.72,190.2c-7.45-3.08-14.64,9.52-18.05,16.73c-0.37,0.77-0.68,1.48-0.96,2.1
			c-0.71,1.59,2.98,3.42,2.25,5.28c-0.59,1.5-4.44,0.88-4.77,2.2c-0.18,0.69-0.35,1.44-0.52,2.22c-1.34,6.31-2.01,14.67,3.64,15.44
			c9.47,1.29,5.73-10.84,11.97-22.4C205.56,205.65,217.18,193.71,208.72,190.2z"/>
		<path class="st0" d="M127.74,215.1c8.18,0.1,4.51-8.96,10.48-20.67c3.14-6.16,12.81-15.96,6.25-19.1
			c-6.65-3.18-13.43,7.26-16.85,14.45c-0.37,0.77-0.68,1.48-0.96,2.1c-0.71,1.59,2.98,3.42,2.25,5.28c-0.59,1.5-4.44,0.88-4.77,2.2
			c-0.18,0.69-0.35,1.44-0.52,2.22C122.27,207.89,122.04,215.03,127.74,215.1z"/>
	</g>
	<g>
		<path class="st0" d="M187.09,8.07c47.82,0,92.77,18.62,126.58,52.43s52.43,78.77,52.43,126.58s-18.62,92.77-52.43,126.58
			S234.9,366.1,187.09,366.1S94.31,347.48,60.5,313.67S8.07,234.9,8.07,187.09S26.69,94.31,60.5,60.5S139.27,8.07,187.09,8.07
			 M187.09,4.03C85.99,4.03,4.03,85.99,4.03,187.09s81.96,183.06,183.06,183.06s183.06-81.96,183.06-183.06S288.19,4.03,187.09,4.03
			L187.09,4.03z"/>
	</g>
</g>
</svg>
